<?xml version="1.0" encoding="UTF-8" standalone="no"?>
<svg
   xmlns:dc="http://purl.org/dc/elements/1.1/"
   xmlns:cc="http://creativecommons.org/ns#"
   xmlns:rdf="http://www.w3.org/1999/02/22-rdf-syntax-ns#"
   xmlns:svg="http://www.w3.org/2000/svg"
   xmlns="http://www.w3.org/2000/svg"
   viewBox="0 0 379.78668 114.45333"
   height="114.45333"
   width="379.78668"
   xml:space="preserve"
   id="svg2"
   version="1.1">
  <metadata id="metadata8">
    <rdf:RDF>
      <cc:Work rdf:about="">
        <dc:format>image/svg+xml</dc:format>
        <dc:type rdf:resource="http://purl.org/dc/dcmitype/StillImage" />
      </cc:Work>
    </rdf:RDF>
  </metadata>
  <defs id="defs6" />
  <g
     transform="matrix(1.3333333,0,0,-1.3333333,0,114.45333)"
     id="g10">
    <g
       transform="scale(0.1)"
       id="g12">
      <path
         id="path14"
         style="fill:#f78d11;fill-opacity:1;fill-rule:evenodd;stroke:none"
         d="M 1767.11,187.09 C 1601.62,64.9609 1361.68,0 1155.08,0 865.508,0 604.766,107.031 407.434,285.215 c -15.493,13.984 -1.672,33.105 16.953,22.265 212.886,-123.886 476.148,-198.496 748.073,-198.496 183.43,0 385.07,38.067 570.6,116.758 27.98,11.875 51.44,-18.437 24.05,-38.652" />
      <path
         id="path16"
         style="fill:#f78d11;fill-opacity:1;fill-rule:evenodd;stroke:none"
         d="m 1835.99,265.703 c -21.18,27.11 -139.94,12.852 -193.28,6.465 -16.16,-1.934 -18.67,12.168 -4.1,22.402 94.73,66.543 249.95,47.325 267.99,25.059 18.19,-22.481 -4.75,-178.106 -93.54,-252.3829 -13.66,-11.4258 -26.64,-5.332 -20.59,9.7656 19.97,49.8833 64.7,161.5823 43.52,188.6913" />
      <path
         id="path18"
         style="fill:#231f20;fill-opacity:1;fill-rule:evenodd;stroke:none"
         d="m 1646.47,764.621 v 64.652 c 0.04,9.84 7.46,16.403 16.39,16.383 l 289.78,0.028 c 9.26,-0.004 16.7,-6.746 16.72,-16.332 l -0.02,-55.45 c -0.07,-9.297 -7.9,-21.441 -21.82,-40.703 l -150.1,-214.312 c 55.72,1.308 114.66,-7.028 165.29,-35.489 11.41,-6.41 14.47,-15.921 15.37,-25.238 v -68.98 c 0,-9.512 -10.4,-20.508 -21.33,-14.785 -89.2,46.718 -207.56,51.832 -306.18,-0.567 -10.08,-5.371 -20.63,5.469 -20.63,14.981 v 65.582 c 0,10.488 0.2,28.441 10.78,44.437 l 173.91,249.488 -151.42,0.028 c -9.25,0 -16.68,6.594 -16.74,16.277" />
      <path
         id="path20"
         style="fill:#231f20;fill-opacity:1;fill-rule:evenodd;stroke:none"
         d="m 589.434,360.801 h -88.157 c -8.386,0.547 -15.093,6.855 -15.769,14.902 l 0.058,452.465 c 0,9.055 7.618,16.289 17.012,16.289 l 82.102,0.027 c 8.59,-0.445 15.488,-6.945 16.035,-15.195 v -59.074 h 1.648 c 21.399,57.129 61.719,83.789 116.028,83.789 55.132,0 89.695,-26.66 114.39,-83.789 21.391,57.129 69.946,83.789 121.789,83.789 37.032,0 77.35,-15.234 102.04,-49.512 27.98,-38.086 22.23,-93.308 22.23,-141.871 l -0.07,-285.531 c 0,-9.043 -7.62,-16.289 -17,-16.289 h -88.059 c -8.848,0.566 -15.828,7.578 -15.828,16.25 l -0.024,239.867 c 0,19.043 1.653,66.652 -2.468,84.746 -6.582,30.465 -26.328,39.035 -51.836,39.035 -21.399,0 -43.621,-14.285 -52.676,-37.133 -9.055,-22.851 -8.223,-60.933 -8.223,-86.648 V 377.09 c 0,-9.043 -7.617,-16.289 -17.004,-16.289 h -88.054 c -8.848,0.566 -15.828,7.578 -15.828,16.25 l -0.09,239.867 c 0,50.465 8.23,124.73 -54.309,124.73 -63.367,0 -60.894,-72.363 -60.894,-124.73 L 606.438,377.09 c 0.007,-9.043 -7.61,-16.289 -17.004,-16.289" />
      <path
         id="path22"
         style="fill:#231f20;fill-opacity:1;fill-rule:evenodd;stroke:none"
         d="m 2219.63,761.645 c -65.02,0 -69.13,-88.543 -69.13,-143.77 0,-55.223 -0.82,-173.289 68.31,-173.289 68.31,0 71.59,95.215 71.59,153.289 0,38.086 -1.64,83.789 -13.16,119.973 -9.89,31.422 -29.64,43.797 -57.61,43.797 z m -0.82,92.359 c 130.85,0 201.61,-112.356 201.61,-255.172 0,-138.055 -78.16,-247.562 -201.61,-247.562 -128.38,0 -198.33,112.359 -198.33,252.32 0,140.918 70.77,250.414 198.33,250.414" />
      <path
         id="path24"
         style="fill:#231f20;fill-opacity:1;fill-rule:evenodd;stroke:none"
         d="m 2590.11,360.801 h -87.83 c -8.83,0.566 -15.82,7.578 -15.82,16.25 l -0.14,452.64 c 0.74,8.274 8.05,14.766 16.93,14.766 l 81.78,0.027 c 7.69,-0.398 14.04,-5.656 15.66,-12.675 v -69.211 h 1.66 c 24.69,61.89 59.24,91.406 120.14,91.406 39.49,0 78.18,-14.281 102.87,-53.32 23.05,-36.18 23.05,-97.118 23.05,-140.918 V 375.059 c -1,-8.028 -8.19,-14.258 -16.9,-14.258 h -88.38 c -8.16,0.527 -14.74,6.523 -15.7,14.258 v 245.668 c 0,49.511 5.76,121.875 -55.14,121.875 -21.4,0 -41.15,-14.282 -51.01,-36.18 -12.34,-27.609 -14,-55.227 -14,-85.695 V 377.09 c -0.16,-9.043 -7.78,-16.289 -17.17,-16.289" />
      <path
         id="path26"
         style="fill:#231f20;fill-opacity:1;fill-rule:evenodd;stroke:none"
         d="m 1504.35,361.934 c -5.84,-5.235 -14.25,-5.586 -20.83,-2.051 -29.28,24.336 -34.53,35.586 -50.53,58.75 -48.4,-49.297 -82.68,-64.082 -145.35,-64.082 -74.22,0 -131.96,45.801 -131.96,137.402 0,71.567 38.76,120.231 94.02,144.086 47.83,20.996 114.64,24.813 165.77,30.539 v 11.449 c 0,20.993 1.65,45.805 -10.72,63.93 -10.73,16.227 -31.34,22.906 -49.49,22.906 -33.62,0 -63.51,-17.23 -70.86,-52.937 -1.52,-7.946 -7.32,-15.805 -15.31,-16.207 l -85.45,9.246 c -7.21,1.629 -15.23,7.414 -13.15,18.43 19.64,103.668 113.25,134.984 197.15,134.984 42.88,0 98.96,-11.449 132.77,-43.895 42.89,-40.078 38.76,-93.515 38.76,-151.726 V 525.41 c 0,-41.312 17.17,-59.437 33.28,-81.703 5.63,-8.019 6.9,-17.559 -0.29,-23.414 -18.01,-15.098 -50,-42.891 -67.61,-58.555 z m -88.88,214.945 c 0,-34.356 0.82,-62.977 -16.5,-93.516 -14.02,-24.812 -36.28,-40.078 -61.03,-40.078 -33.81,0 -53.6,25.774 -53.6,63.938 0,75.082 67.35,88.738 131.13,88.738 v -19.082" />
      <path
         id="path28"
         style="fill:#231f20;fill-opacity:1;fill-rule:evenodd;stroke:none"
         d="m 348.66,361.934 c -5.84,-5.235 -14.258,-5.586 -20.828,-2.051 -29.285,24.336 -34.531,35.586 -50.535,58.75 C 228.906,369.336 194.629,354.551 131.953,354.551 57.7227,354.551 0,400.352 0,491.953 0,563.52 38.7617,612.184 94.0156,636.039 141.848,657.035 208.652,660.852 259.773,666.578 v 11.449 c 0,20.993 1.653,45.805 -10.71,63.93 -10.723,16.227 -31.348,22.906 -49.485,22.906 -33.621,0 -63.523,-17.23 -70.855,-52.937 -1.535,-7.946 -7.328,-15.805 -15.325,-16.207 l -85.4371,9.246 c -7.2187,1.629 -15.2461,7.414 -13.1562,18.43 19.6289,103.668 113.2423,134.984 197.1363,134.984 42.895,0 98.965,-11.449 132.786,-43.895 42.878,-40.078 38.757,-93.515 38.757,-151.726 V 525.41 c 0,-41.312 17.161,-59.437 33.274,-81.703 5.625,-8.019 6.894,-17.559 -0.281,-23.414 -18.008,-15.098 -50.012,-42.891 -67.61,-58.555 z m -88.887,214.945 c 0,-34.356 0.832,-62.977 -16.492,-93.516 -14.011,-24.812 -36.277,-40.078 -61.023,-40.078 -33.813,0 -53.606,25.774 -53.606,63.938 0,75.082 67.356,88.738 131.121,88.738 v -19.082" />
    </g>
  </g>
</svg>