<?xml version="1.0" encoding="UTF-8" standalone="no"?>
<svg
   xmlns:dc="http://purl.org/dc/elements/1.1/"
   xmlns:cc="http://creativecommons.org/ns#"
   xmlns:rdf="http://www.w3.org/1999/02/22-rdf-syntax-ns#"
   xmlns:svg="http://www.w3.org/2000/svg"
   xmlns="http://www.w3.org/2000/svg"
   viewBox="0 0 410.86667 111.65333"
   height="111.65333"
   width="410.86667"
   xml:space="preserve"
   id="svg2"
   version="1.1">
  <metadata id="metadata8">
    <rdf:RDF>
      <cc:Work rdf:about="">
        <dc:format>image/svg+xml</dc:format>
        <dc:type rdf:resource="http://purl.org/dc/dcmitype/StillImage" />
      </cc:Work>
    </rdf:RDF>
  </metadata>
  <defs id="defs6" />
  <g
     transform="matrix(1.3333333,0,0,-1.3333333,0,111.65333)"
     id="g10">
    <g
       transform="scale(0.1)"
       id="g12">
      <path
         id="path14"
         style="fill:#231f20;fill-opacity:1;fill-rule:nonzero;stroke:none"
         d="m 2857.45,738.477 -11.78,36.312 -11.86,-36.312 h -38.47 l 31.14,-22.559 -11.71,-36.301 30.81,22.453 31.01,-22.554 -11.83,36.453 31.04,22.508 h -38.35" />
      <path
         id="path16"
         style="fill:#e3182b;fill-opacity:1;fill-rule:nonzero;stroke:none"
         d="M 342.672,837.402 262.16,590.051 H 0 L 212.383,436.328 131.93,188.883 342.348,341.949 553.996,188.129 473.141,436.719 684.59,590.051 H 423.262 l -80.59,247.351" />
      <path
         id="path18"
         style="fill:#231f20;fill-opacity:1;fill-rule:nonzero;stroke:none"
         d="m 1455.46,542.223 c -8.81,28.058 -22.09,50.945 -39.83,68.328 -15.33,15.328 -33.69,26.89 -54.78,34.601 -21.15,7.731 -44.98,11.567 -71.38,11.559 -25.95,0 -51.4,-5.27 -74.41,-14.957 -22.47,-9.504 -42.58,-23.203 -58.45,-40.441 h -0.66 l -0.77,-1.551 c -8.81,-9.699 -15.42,-19.172 -20.61,-28.168 -4.79,-8.305 -8.34,-16.184 -11.3,-23.414 -1.74,3.738 -5.38,11.359 -9.83,19.781 -6.19,11.656 -13.75,24.859 -20.54,32.16 -15.24,18.207 -35.02,32.43 -58.04,42.02 -23.04,9.578 -49.29,14.57 -77.649,14.578 -15.961,-0.008 -43.629,-2.348 -72.891,-15.766 -28.457,-13.004 -58.386,-36.555 -80.16,-78.18 v 82.676 h -26.156 v -460.98 h 26.156 v 262.535 c 0,29.988 3.403,55.687 10.36,77.93 6.96,22.257 17.453,41.078 31.824,57.429 12.004,15.707 29.121,28.61 48.547,37.34 17.98,8.11 37.922,12.66 57.441,12.66 1.637,0 3.231,-0.015 4.801,-0.101 26.937,-0.871 50.437,-5.891 70.487,-14.953 20.07,-9.067 36.7,-22.129 49.96,-39.239 10.36,-13.851 18.48,-27.918 24.13,-46.718 5.61,-18.758 8.72,-42.344 8.72,-74.95 0,-2.222 0,-4.429 -0.03,-6.718 -0.05,-2.282 -0.1,-4.602 -0.14,-6.973 -0.02,-0.109 -0.02,-62.406 0,-125.383 V 184.469 h 26.17 V 442.66 c -0.01,34.703 1.32,59.305 6.35,79.934 5.05,20.636 13.73,37.48 28.93,57.207 14.71,19.254 34.73,32.371 55.79,40.683 21.09,8.317 43.25,11.778 61.97,11.778 23.16,0 43.67,-3.293 61.45,-9.774 17.77,-6.476 32.79,-16.117 45.16,-28.898 15.52,-15.559 27.1,-35.539 34.83,-60.52 7.75,-25.007 11.61,-55.039 11.61,-90.41 V 184.469 h 26.17 V 442.66 c 0,38.262 -4.4,71.488 -13.23,99.563" />
      <path
         id="path20"
         style="fill:#231f20;fill-opacity:1;fill-rule:nonzero;stroke:none"
         d="M 1943.25,645.449 V 528.258 c -13.19,31.621 -39.23,62.969 -74.73,86.832 -37.16,24.949 -84.75,41.637 -138.89,41.637 -78.5,0.011 -139.31,-31.141 -180.23,-76.993 -40.95,-45.828 -62.14,-106.164 -62.14,-164.777 0,-58.578 21.19,-118.918 62.14,-164.766 40.92,-45.839 101.73,-77.043 180.23,-77.011 48.07,0 91.37,11.59 127.94,33.711 35.52,21.492 64.63,52.957 85.68,93.203 V 184.469 h 26.13 v 460.98 z m 2.69,-232.23 c 0,-11.594 -0.95,-23.141 -2.73,-34.442 -2.21,-13.48 -5.62,-26.531 -10.28,-38.832 -15.59,-44.004 -42.57,-79.531 -77.21,-104.082 -34.69,-24.539 -77.07,-38.222 -123.49,-38.222 -71.48,0.039 -125.73,27.218 -162.49,67.832 -36.72,40.597 -55.87,94.757 -56.33,148.593 v 0.891 c 0.01,62.078 23.27,116.344 61.86,155.141 38.63,38.789 92.62,62.148 154.36,62.16 45.24,0 87.55,-13.047 122.45,-36.16 34.93,-23.11 62.46,-56.278 78.26,-96.61 5.05,-11.883 8.93,-24.621 11.54,-37.961 2.61,-13.339 3.94,-27.25 3.94,-41.382 0.09,-2.368 0.12,-4.637 0.12,-6.926" />
      <path
         id="path22"
         style="fill:#231f20;fill-opacity:1;fill-rule:nonzero;stroke:none"
         d="m 2425.44,331.047 -0.85,-2.461 c -10.74,-31.219 -33.84,-63.805 -67.61,-88.59 -33.73,-24.824 -78.13,-41.894 -131.53,-42.355 -28.83,0.011 -56.74,5.371 -82.43,15.539 -25.71,10.195 -49.19,25.222 -69.28,44.648 -20.78,20.059 -36.9,44.004 -47.83,70.625 -10.93,26.621 -16.66,55.871 -16.66,86.504 0,30.059 6.19,60.488 17.16,87.699 10.98,27.196 26.74,51.157 45.66,68.36 24.39,21.726 47.3,36.777 71.89,46.558 24.59,9.762 50.93,14.262 82.35,14.692 0.82,0.007 1.65,0.019 2.48,0.019 36.7,0 77,-10.199 112.4,-31.832 36.16,-22.148 67.15,-56.117 84.25,-103.488 l 0.86,-2.418 h 28.85 l -1.74,4.879 c -20.4,57.898 -57.48,97.336 -99.35,122.156 -41.9,24.832 -88.58,35.141 -128.57,35.141 -69.01,0.011 -129.66,-26.047 -173.01,-69.477 -43.38,-43.394 -69.42,-104.101 -69.42,-173.164 0.02,-59.781 21.2,-119.957 62.67,-165.289 41.46,-45.32 103.35,-75.645 184.08,-75.605 51.04,0 98.35,14.96 137.09,41.593 38.73,26.59 68.88,64.871 85.65,111.36 l 1.77,4.906 h -28.88" />
      <path
         id="path24"
         style="fill:#231f20;fill-opacity:1;fill-rule:nonzero;stroke:none"
         d="m 2798.51,645.461 -0.95,-2.199 c -0.73,-1.692 -45.76,-107.563 -90.61,-213.082 -41.13,-96.668 -82.07,-192.989 -88.64,-208.426 -6.3,15.82 -44.61,111.898 -83.07,208.336 -42.06,105.473 -84.32,211.41 -84.96,213.039 l -0.91,2.332 h -28.93 l 1.99,-5.023 c 1.45,-3.606 46.49,-117.258 91.21,-229.969 43.17,-108.844 86.01,-216.813 88.91,-224.106 -1.22,-2.773 -19.67,-44.855 -38.47,-87.7458 -19.55,-44.5 -39.48,-89.90236 -41.07,-93.48439 l -2.29,-5.12890375 h 29.88 l 0.95,2.20703375 c 0.68,1.55469 68.71,159.25806 137,317.46906 68.3,158.218 136.81,316.968 138.4,320.652 l 2.24,5.129 h -30.68" />
      <path
         id="path26"
         style="fill:#231f20;fill-opacity:1;fill-rule:nonzero;stroke:none"
         d="m 3081.3,311.934 c -2.47,47.73 -20.02,76.82 -44.73,95.429 -24.67,18.594 -55.98,26.992 -86.28,35.211 l -1.92,0.512 -1.89,0.527 c -31.96,8.922 -56.41,18.575 -72.86,32.66 -16.43,14.133 -25.39,32.512 -26.81,60.852 -0.08,1.582 -0.14,3.148 -0.14,4.691 0.01,10.887 1.83,21.336 5.34,31.032 4.01,11.066 10.16,21.136 18.35,29.675 9.09,9.571 20.34,16.985 33.16,22.024 12.84,5.058 27.27,7.719 42.7,7.719 0.84,0.019 1.57,0.031 2.24,0.031 13.22,0 25.7,-2.152 36.91,-6.234 11.82,-4.278 22.22,-10.715 30.7,-19.036 8.24,-8.082 14.58,-17.961 18.94,-29.422 4.38,-11.417 6.77,-24.453 7.03,-38.75 l 0.06,-3.601 h 26.17 l -0.06,3.73 c -0.58,35.039 -12.8,64.391 -34.12,84.981 -21.3,20.59 -51.6,32.308 -87.84,32.75 -31.09,0 -62.37,-9.133 -86.06,-28.762 -23.71,-19.637 -39.55,-49.848 -39.53,-90.828 h 3.66 l -3.66,-0.117 c 1.22,-38.742 14.82,-64.203 37.07,-81.774 22.2,-17.597 52.41,-27.671 87.33,-37.75 39.04,-8.617 66.09,-20.941 83.52,-38.339 17.38,-17.391 25.67,-40.02 26.54,-70.75 0.02,-0.598 0.03,-1.165 0.03,-1.731 0.01,-0.613 0.01,-1.16 0.01,-1.766 0,-14.523 -2.6,-28.398 -7.66,-41.171 -5.02,-12.766 -12.48,-24.387 -22.09,-34.309 -9.94,-10.234 -21.88,-18.145 -35.3,-23.563 -13.42,-5.382 -28.25,-8.214 -43.89,-8.222 -34.48,0.008 -63.01,11.355 -83.13,30.945 -20.15,19.602 -31.97,47.617 -32.62,81.551 l -0.06,3.605 h -26.11 l -0.17,-3.5 c -0.05,-1.031 -0.1,-2.066 -0.12,-3.129 -0.04,-1.007 -0.07,-2.05 -0.07,-3.125 -0.01,-16.378 2.9,-31.984 8.5,-46.386 5.69,-14.465 14.12,-27.735 25.11,-39.465 13.44,-14.316 30.1,-25.535 48.62,-33.184 18.52,-7.695 38.97,-11.757 60.05,-11.757 19.4,0 38,3.742 54.98,10.859 16.92,7.121 32.25,17.656 45.06,31.242 12.33,13.055 21.62,28.184 27.56,44.551 5.07,14.031 7.69,29.023 7.69,44.375 0,2.566 -0.08,5.164 -0.21,7.719" />
    </g>
  </g>
</svg>